# Wavefront OBJ file automatically generated by Tiled2Unity

# Vertices (Count = 30)
v 0 -0.32 0
v -0.32 -0.32 0
v -0.32 0 0
v 0 0 0
v -0.64 -0.32 0
v -0.64 0 0
v -0.96 -0.32 0
v -0.96 0 0
v -1.28 -0.32 0
v -1.28 0 0
v -1.6 -0.32 0
v -1.6 0 0
v -1.92 -0.32 0
v -1.92 0 0
v -2.24 -0.32 0
v -2.24 0 0
v -2.56 -0.32 0
v -2.56 0 0
v -2.88 -0.32 0
v -2.88 0 0
v 0 -0.64 0
v -0.32 -0.64 0
v -0.64 -0.64 0
v -0.96 -0.64 0
v -1.28 -0.64 0
v -1.6 -0.64 0
v -1.92 -0.64 0
v -2.24 -0.64 0
v -2.56 -0.64 0
v -2.88 -0.64 0

# Texture cooridinates (Count = 68)
vt 0.0001220703 0.900122
vt 0.06237793 0.900122
vt 0.06237793 0.9998779
vt 0.0001220703 0.9998779
vt 0.06262207 0.900122
vt 0.1248779 0.900122
vt 0.1248779 0.9998779
vt 0.06262207 0.9998779
vt 0.1251221 0.900122
vt 0.1873779 0.900122
vt 0.1873779 0.9998779
vt 0.1251221 0.9998779
vt 0.1876221 0.900122
vt 0.2498779 0.900122
vt 0.2498779 0.9998779
vt 0.1876221 0.9998779
vt 0.2501221 0.900122
vt 0.3123779 0.900122
vt 0.3123779 0.9998779
vt 0.2501221 0.9998779
vt 0.3126221 0.900122
vt 0.3748779 0.900122
vt 0.3748779 0.9998779
vt 0.3126221 0.9998779
vt 0.4376221 0.7001221
vt 0.4998779 0.7001221
vt 0.4998779 0.7998779
vt 0.4376221 0.7998779
vt 0.5001221 0.7001221
vt 0.5623779 0.7001221
vt 0.5623779 0.7998779
vt 0.5001221 0.7998779
vt 0.5626221 0.7001221
vt 0.6248779 0.7001221
vt 0.6248779 0.7998779
vt 0.5626221 0.7998779
vt 0.0001220703 0.8001221
vt 0.06237793 0.8001221
vt 0.06237793 0.8998779
vt 0.0001220703 0.8998779
vt 0.06262207 0.8001221
vt 0.1248779 0.8001221
vt 0.1248779 0.8998779
vt 0.06262207 0.8998779
vt 0.3751221 0.8001221
vt 0.4373779 0.8001221
vt 0.4373779 0.8998779
vt 0.3751221 0.8998779
vt 0.0001220703 0.7001221
vt 0.06237793 0.7001221
vt 0.06237793 0.7998779
vt 0.0001220703 0.7998779
vt 0.06262207 0.7001221
vt 0.1248779 0.7001221
vt 0.1248779 0.7998779
vt 0.06262207 0.7998779
vt 0.1251221 0.7001221
vt 0.1873779 0.7001221
vt 0.1873779 0.7998779
vt 0.1251221 0.7998779
vt 0.1876221 0.7001221
vt 0.2498779 0.7001221
vt 0.2498779 0.7998779
vt 0.1876221 0.7998779
vt 0.2501221 0.7001221
vt 0.3123779 0.7001221
vt 0.3123779 0.7998779
vt 0.2501221 0.7998779

# Normal
vn 0 0 -1

# Groups (Count = 2)

g mesh_0001
f 1/1/1 2/2/1 3/3/1 4/4/1
f 2/5/1 5/6/1 6/7/1 3/8/1
f 5/9/1 7/10/1 8/11/1 6/12/1
f 7/13/1 9/14/1 10/15/1 8/16/1
f 9/17/1 11/18/1 12/19/1 10/20/1
f 11/21/1 13/22/1 14/23/1 12/24/1
f 13/25/1 15/26/1 16/27/1 14/28/1
f 15/29/1 17/30/1 18/31/1 16/32/1
f 17/33/1 19/34/1 20/35/1 18/36/1
f 21/37/1 22/38/1 2/39/1 1/40/1
f 22/41/1 23/42/1 5/43/1 2/44/1
f 23/45/1 24/46/1 7/47/1 5/48/1
f 24/45/1 25/46/1 9/47/1 7/48/1
f 25/45/1 26/46/1 11/47/1 9/48/1
f 26/45/1 27/46/1 13/47/1 11/48/1
f 27/45/1 28/46/1 15/47/1 13/48/1
f 28/45/1 29/46/1 17/47/1 15/48/1

g mesh_0002
f 21/49/1 22/50/1 2/51/1 1/52/1
f 22/53/1 23/54/1 5/55/1 2/56/1
f 23/57/1 24/58/1 7/59/1 5/60/1
f 24/61/1 25/62/1 9/63/1 7/64/1
f 25/65/1 26/66/1 11/67/1 9/68/1
f 26/25/1 27/26/1 13/27/1 11/28/1
f 27/25/1 28/26/1 15/27/1 13/28/1
f 28/29/1 29/30/1 17/31/1 15/32/1
f 29/33/1 30/34/1 19/35/1 17/36/1

