# Wavefront OBJ file automatically generated by Tiled2Unity

# Vertices (Count = 32)
v -0.64 -0.32 0
v -0.96 -0.32 0
v -0.96 0 0
v -0.64 0 0
v -1.28 -0.32 0
v -1.28 0 0
v -0.32 -0.64 0
v -0.64 -0.64 0
v -0.32 -0.32 0
v -1.28 -0.64 0
v -1.6 -0.64 0
v -1.6 -0.32 0
v 0 -0.96 0
v -0.32 -0.96 0
v 0 -0.64 0
v -1.6 -0.96 0
v -1.92 -0.96 0
v -1.92 -0.64 0
v 0 -1.28 0
v -0.32 -1.28 0
v -1.6 -1.28 0
v -1.92 -1.28 0
v -0.32 -1.6 0
v -0.64 -1.6 0
v -0.64 -1.28 0
v -1.28 -1.6 0
v -1.6 -1.6 0
v -1.28 -1.28 0
v -0.64 -1.92 0
v -0.96 -1.92 0
v -0.96 -1.6 0
v -1.28 -1.92 0

# Texture cooridinates (Count = 4)
vt 6.103516E-05 0.0001220703
vt 0.499939 0.0001220703
vt 0.499939 0.9998779
vt 6.103516E-05 0.9998779

# Normal
vn 0 0 -1

# Groups (Count = 12)

g mesh_0001
f 1/1/1 2/2/1 3/3/1 4/4/1

g mesh_0002
f 1/1/1 2/2/1 3/3/1 4/4/1
f 2/1/1 5/2/1 6/3/1 3/4/1

g mesh_0003
f 1/1/1 2/2/1 3/3/1 4/4/1
f 2/1/1 5/2/1 6/3/1 3/4/1
f 7/1/1 8/2/1 1/3/1 9/4/1

g mesh_0004
f 1/1/1 2/2/1 3/3/1 4/4/1
f 2/1/1 5/2/1 6/3/1 3/4/1
f 7/1/1 8/2/1 1/3/1 9/4/1
f 10/1/1 11/2/1 12/3/1 5/4/1

g mesh_0005
f 1/1/1 2/2/1 3/3/1 4/4/1
f 2/1/1 5/2/1 6/3/1 3/4/1
f 7/1/1 8/2/1 1/3/1 9/4/1
f 10/1/1 11/2/1 12/3/1 5/4/1
f 13/1/1 14/2/1 7/3/1 15/4/1

g mesh_0006
f 1/1/1 2/2/1 3/3/1 4/4/1
f 2/1/1 5/2/1 6/3/1 3/4/1
f 7/1/1 8/2/1 1/3/1 9/4/1
f 10/1/1 11/2/1 12/3/1 5/4/1
f 13/1/1 14/2/1 7/3/1 15/4/1
f 16/1/1 17/2/1 18/3/1 11/4/1

g mesh_0007
f 1/1/1 2/2/1 3/3/1 4/4/1
f 2/1/1 5/2/1 6/3/1 3/4/1
f 7/1/1 8/2/1 1/3/1 9/4/1
f 10/1/1 11/2/1 12/3/1 5/4/1
f 13/1/1 14/2/1 7/3/1 15/4/1
f 16/1/1 17/2/1 18/3/1 11/4/1
f 19/1/1 20/2/1 14/3/1 13/4/1

g mesh_0008
f 1/1/1 2/2/1 3/3/1 4/4/1
f 2/1/1 5/2/1 6/3/1 3/4/1
f 7/1/1 8/2/1 1/3/1 9/4/1
f 10/1/1 11/2/1 12/3/1 5/4/1
f 13/1/1 14/2/1 7/3/1 15/4/1
f 16/1/1 17/2/1 18/3/1 11/4/1
f 19/1/1 20/2/1 14/3/1 13/4/1
f 21/1/1 22/2/1 17/3/1 16/4/1

g mesh_0009
f 1/1/1 2/2/1 3/3/1 4/4/1
f 2/1/1 5/2/1 6/3/1 3/4/1
f 7/1/1 8/2/1 1/3/1 9/4/1
f 10/1/1 11/2/1 12/3/1 5/4/1
f 13/1/1 14/2/1 7/3/1 15/4/1
f 16/1/1 17/2/1 18/3/1 11/4/1
f 19/1/1 20/2/1 14/3/1 13/4/1
f 21/1/1 22/2/1 17/3/1 16/4/1
f 23/1/1 24/2/1 25/3/1 20/4/1

g mesh_0010
f 1/1/1 2/2/1 3/3/1 4/4/1
f 2/1/1 5/2/1 6/3/1 3/4/1
f 7/1/1 8/2/1 1/3/1 9/4/1
f 10/1/1 11/2/1 12/3/1 5/4/1
f 13/1/1 14/2/1 7/3/1 15/4/1
f 16/1/1 17/2/1 18/3/1 11/4/1
f 19/1/1 20/2/1 14/3/1 13/4/1
f 21/1/1 22/2/1 17/3/1 16/4/1
f 23/1/1 24/2/1 25/3/1 20/4/1
f 26/1/1 27/2/1 21/3/1 28/4/1

g mesh_0011
f 1/1/1 2/2/1 3/3/1 4/4/1
f 2/1/1 5/2/1 6/3/1 3/4/1
f 7/1/1 8/2/1 1/3/1 9/4/1
f 10/1/1 11/2/1 12/3/1 5/4/1
f 13/1/1 14/2/1 7/3/1 15/4/1
f 16/1/1 17/2/1 18/3/1 11/4/1
f 19/1/1 20/2/1 14/3/1 13/4/1
f 21/1/1 22/2/1 17/3/1 16/4/1
f 23/1/1 24/2/1 25/3/1 20/4/1
f 26/1/1 27/2/1 21/3/1 28/4/1
f 29/1/1 30/2/1 31/3/1 24/4/1

g mesh_0012
f 1/1/1 2/2/1 3/3/1 4/4/1
f 2/1/1 5/2/1 6/3/1 3/4/1
f 7/1/1 8/2/1 1/3/1 9/4/1
f 10/1/1 11/2/1 12/3/1 5/4/1
f 13/1/1 14/2/1 7/3/1 15/4/1
f 16/1/1 17/2/1 18/3/1 11/4/1
f 19/1/1 20/2/1 14/3/1 13/4/1
f 21/1/1 22/2/1 17/3/1 16/4/1
f 23/1/1 24/2/1 25/3/1 20/4/1
f 26/1/1 27/2/1 21/3/1 28/4/1
f 29/1/1 30/2/1 31/3/1 24/4/1
f 30/1/1 32/2/1 26/3/1 31/4/1

